<?xml version="1.0" encoding="UTF-8" standalone="no"?>
<svg
   xmlns:dc="http://purl.org/dc/elements/1.1/"
   xmlns:cc="http://creativecommons.org/ns#"
   xmlns:rdf="http://www.w3.org/1999/02/22-rdf-syntax-ns#"
   xmlns:svg="http://www.w3.org/2000/svg"
   xmlns="http://www.w3.org/2000/svg"
   xmlns:sodipodi="http://sodipodi.sourceforge.net/DTD/sodipodi-0.dtd"
   xmlns:inkscape="http://www.inkscape.org/namespaces/inkscape"
   height="32px"
   version="1.1"
   viewBox="0 0 32 32"
   width="32px"
   id="svg4573"
   sodipodi:docname="icon.svg"
   inkscape:version="0.92.2 (5c3e80d, 2017-08-06)">
  <metadata
     id="metadata4577">
    <rdf:RDF>
      <cc:Work
         rdf:about="">
        <dc:format>image/svg+xml</dc:format>
        <dc:type
           rdf:resource="http://purl.org/dc/dcmitype/StillImage" />
        <dc:title></dc:title>
      </cc:Work>
    </rdf:RDF>
  </metadata>
  <sodipodi:namedview
     pagecolor="#ffffff"
     bordercolor="#666666"
     borderopacity="1"
     objecttolerance="10"
     gridtolerance="10"
     guidetolerance="10"
     inkscape:pageopacity="0"
     inkscape:pageshadow="2"
     inkscape:window-width="1618"
     inkscape:window-height="1008"
     id="namedview4575"
     showgrid="false"
     inkscape:zoom="4.634864"
     inkscape:cx="-17.194267"
     inkscape:cy="-0.048391734"
     inkscape:window-x="1913"
     inkscape:window-y="0"
     inkscape:window-maximized="0"
     inkscape:current-layer="icon-44-note-text" />
  <desc
     id="desc4566" />
  <defs
     id="defs4568" />
  <g
     fill="none"
     fill-rule="evenodd"
     id="Page-1"
     stroke="none"
     stroke-width="1">
    <g
       fill="#157EFB"
       id="icon-44-note-text">
      <path
         d="M 3,9 V 23.999136 C 3,25.098373 3.8927712,26 4.9940603,26 H 19 V 19.998101 C 19,18.886706 19.898081,18 21.005919,18 H 26 V 9 Z M 3,8 V 5.0008642 C 3,3.8958174 3.9016273,3 5.0008642,3 H 23.999136 C 25.104183,3 26,3.8933973 26,4.9918842 V 8 Z M 20,26 V 20.002929 C 20,19.449027 20.450975,19 20.990778,19 H 26 Z M 6,12 v 1 h 17 v -1 z m 0,3 v 1 h 17 v -1 z m 0,3 v 1 h 11 v -1 z m 0,3 v 1 h 11 v -1 z"
         id="note-text"
         style="fill:#68217a;fill-opacity:1"
         inkscape:connector-curvature="0" />
      <g
         transform="matrix(1.0517411,-0.08646888,0.08646888,1.0517411,5.6120034,7.8148834)"
         style="fill:#68217a;fill-opacity:1;fill-rule:evenodd;stroke:#fffff2;stroke-width:0.94760715;stroke-linecap:round;stroke-linejoin:round;stroke-miterlimit:4;stroke-dasharray:none;stroke-opacity:1;paint-order:normal"
         id="Page-1-6">
        <g
           style="fill:#68217a;fill-opacity:1;stroke:#fffff2;stroke-width:0.94760715;stroke-linecap:round;stroke-linejoin:round;stroke-miterlimit:4;stroke-dasharray:none;stroke-opacity:1;paint-order:normal"
           id="icon-135-pen-angled">
          <path
             inkscape:connector-curvature="0"
             d="M 21.848616,8.9566092 9.8486592,20.956612 l -0.707106,0.707107 -4.0000004,-4 L 17.848616,4.9566092 Z m 4.3e-5,3e-6 1.726554,-1.7265535 c 0.784185,-0.7841854 0.786081,-2.0537052 0.0096,-2.8301436 l -1.1795,-1.1794993 C 21.626454,2.441556 20.367844,2.4373844 19.57517,3.2300558 l -1.726554,1.7265534 4,4 z M 9.1415532,21.663719 l -0.146447,0.146446 -5,1 1,-5 0.1464466,-0.146446 z"
             id="pen-angled"
             style="fill:#68217a;fill-opacity:1;stroke:#fffff2;stroke-width:0.94760715;stroke-linecap:round;stroke-linejoin:round;stroke-miterlimit:4;stroke-dasharray:none;stroke-opacity:1;paint-order:normal"
             sodipodi:nodetypes="cccccccscscccccccccc" />
        </g>
      </g>
    </g>
  </g>
</svg>
